<?xml version="1.0" encoding="UTF-8" standalone="no"?>
<!DOCTYPE svg PUBLIC "-//W3C//DTD SVG 1.1//EN"
 "http://www.w3.org/Graphics/SVG/1.1/DTD/svg11.dtd">
<!-- Generated by graphviz version 15.1.0 (20260618.0150)
 -->
<!-- Title: UseCases Pages: 1 -->
<svg width="465pt" height="446pt"
 viewBox="0.00 0.00 465.00 446.00" xmlns="http://www.w3.org/2000/svg" xmlns:xlink="http://www.w3.org/1999/xlink">
<g id="graph0" class="graph" transform="scale(1 1) rotate(0) translate(4 442)">
<title>UseCases</title>
<polygon fill="white" stroke="none" points="-4,4 -4,-442 461.18,-442 461.18,4 -4,4"/>
<text xml:space="preserve" text-anchor="middle" x="228.59" y="-420.7" font-family="Helvetica,sans-Serif" font-size="14.00">Gestion des élèves &#45; cas d&#39;utilisation</text>
<g id="clust1" class="cluster">
<title>cluster_systeme</title>
<path fill="white" stroke="black" d="M167,-8C167,-8 437.18,-8 437.18,-8 443.18,-8 449.18,-14 449.18,-20 449.18,-20 449.18,-395 449.18,-395 449.18,-401 443.18,-407 437.18,-407 437.18,-407 167,-407 167,-407 161,-407 155,-401 155,-395 155,-395 155,-20 155,-20 155,-14 161,-8 167,-8"/>
<text xml:space="preserve" text-anchor="middle" x="302.09" y="-389.7" font-family="Helvetica,sans-Serif" font-size="14.00">Application de gestion des élèves</text>
</g>
<!-- admin -->
<g id="node1" class="node">
<title>admin</title>
<polygon fill="none" stroke="black" points="115.38,-214 11.62,-214 11.62,-178 115.38,-178 115.38,-214"/>
<text xml:space="preserve" text-anchor="middle" x="63.5" y="-190.2" font-family="Helvetica,sans-Serif" font-size="14.00">Administrateur</text>
</g>
<!-- eleves -->
<g id="node4" class="node">
<title>eleves</title>
<ellipse fill="none" stroke="black" cx="302.09" cy="-250" rx="74.74" ry="18"/>
<text xml:space="preserve" text-anchor="middle" x="302.09" y="-244.2" font-family="Helvetica,sans-Serif" font-size="14.00">Gérer les élèves</text>
</g>
<!-- admin&#45;&gt;eleves -->
<g id="edge1" class="edge">
<title>admin&#45;&gt;eleves</title>
<path fill="none" stroke="black" d="M115.45,-212.24C128.29,-216.05 142.09,-219.89 155,-223 178.49,-228.66 204.35,-233.79 227.7,-238.02"/>
<polygon fill="black" stroke="black" points="226.99,-241.45 237.45,-239.76 228.22,-234.56 226.99,-241.45"/>
</g>
<!-- inscriptions -->
<g id="node5" class="node">
<title>inscriptions</title>
<ellipse fill="none" stroke="black" cx="302.09" cy="-304" rx="93.27" ry="18"/>
<text xml:space="preserve" text-anchor="middle" x="302.09" y="-298.2" font-family="Helvetica,sans-Serif" font-size="14.00">Gérer les inscriptions</text>
</g>
<!-- admin&#45;&gt;inscriptions -->
<g id="edge2" class="edge">
<title>admin&#45;&gt;inscriptions</title>
<path fill="none" stroke="black" d="M79.44,-214.31C95.89,-233.16 124.15,-261.85 155,-277 170.72,-284.72 188.38,-290.24 205.85,-294.19"/>
<polygon fill="black" stroke="black" points="204.69,-297.53 215.19,-296.14 206.12,-290.67 204.69,-297.53"/>
</g>
<!-- referentiels -->
<g id="node6" class="node">
<title>referentiels</title>
<ellipse fill="none" stroke="black" cx="302.09" cy="-358" rx="92.78" ry="18"/>
<text xml:space="preserve" text-anchor="middle" x="302.09" y="-352.2" font-family="Helvetica,sans-Serif" font-size="14.00">Gérer les référentiels</text>
</g>
<!-- admin&#45;&gt;referentiels -->
<g id="edge3" class="edge">
<title>admin&#45;&gt;referentiels</title>
<path fill="none" stroke="black" d="M71.26,-214.29C83.24,-243.97 111.14,-302.17 155,-331 168.88,-340.12 185.02,-346.36 201.4,-350.6"/>
<polygon fill="black" stroke="black" points="200.18,-353.91 210.71,-352.76 201.76,-347.09 200.18,-353.91"/>
</g>
<!-- notes -->
<g id="node7" class="node">
<title>notes</title>
<ellipse fill="none" stroke="black" cx="302.09" cy="-142" rx="117.64" ry="18"/>
<text xml:space="preserve" text-anchor="middle" x="302.09" y="-136.2" font-family="Helvetica,sans-Serif" font-size="14.00">Saisir et consulter les notes</text>
</g>
<!-- admin&#45;&gt;notes -->
<g id="edge4" class="edge">
<title>admin&#45;&gt;notes</title>
<path fill="none" stroke="black" d="M115.45,-179.76C128.29,-175.95 142.09,-172.11 155,-169 172.44,-164.8 191.19,-160.89 209.25,-157.42"/>
<polygon fill="black" stroke="black" points="209.72,-160.89 218.9,-155.6 208.43,-154.01 209.72,-160.89"/>
</g>
<!-- bulletins -->
<g id="node8" class="node">
<title>bulletins</title>
<ellipse fill="none" stroke="black" cx="302.09" cy="-34" rx="139.09" ry="18"/>
<text xml:space="preserve" text-anchor="middle" x="302.09" y="-28.2" font-family="Helvetica,sans-Serif" font-size="14.00">Générer et consulter les bulletins</text>
</g>
<!-- admin&#45;&gt;bulletins -->
<g id="edge5" class="edge">
<title>admin&#45;&gt;bulletins</title>
<path fill="none" stroke="black" d="M80.14,-177.71C93.42,-161.73 112.58,-137.61 127,-115 141.54,-92.21 133.28,-77.09 155,-61 161.63,-56.09 168.87,-51.99 176.49,-48.57"/>
<polygon fill="black" stroke="black" points="177.7,-51.85 185.67,-44.87 175.08,-45.36 177.7,-51.85"/>
</g>
<!-- photo -->
<g id="node9" class="node">
<title>photo</title>
<ellipse fill="none" stroke="black" cx="302.09" cy="-196" rx="109.35" ry="18"/>
<text xml:space="preserve" text-anchor="middle" x="302.09" y="-190.2" font-family="Helvetica,sans-Serif" font-size="14.00">Gérer la photo d&#39;un élève</text>
</g>
<!-- admin&#45;&gt;photo -->
<g id="edge6" class="edge">
<title>admin&#45;&gt;photo</title>
<path fill="none" stroke="black" d="M115.84,-196C135.22,-196 158.19,-196 181.23,-196"/>
<polygon fill="black" stroke="black" points="181.02,-199.5 191.02,-196 181.02,-192.5 181.02,-199.5"/>
</g>
<!-- pdf -->
<g id="node10" class="node">
<title>pdf</title>
<ellipse fill="none" stroke="black" cx="302.09" cy="-88" rx="119.59" ry="18"/>
<text xml:space="preserve" text-anchor="middle" x="302.09" y="-82.2" font-family="Helvetica,sans-Serif" font-size="14.00">Télécharger un bulletin PDF</text>
</g>
<!-- admin&#45;&gt;pdf -->
<g id="edge7" class="edge">
<title>admin&#45;&gt;pdf</title>
<path fill="none" stroke="black" d="M79.44,-177.69C95.89,-158.84 124.15,-130.15 155,-115 166.67,-109.27 179.4,-104.75 192.33,-101.19"/>
<polygon fill="black" stroke="black" points="192.92,-104.65 201.75,-98.79 191.2,-97.87 192.92,-104.65"/>
</g>
<!-- enseignant -->
<g id="node2" class="node">
<title>enseignant</title>
<polygon fill="none" stroke="black" points="105.25,-106 21.75,-106 21.75,-70 105.25,-70 105.25,-106"/>
<text xml:space="preserve" text-anchor="middle" x="63.5" y="-82.2" font-family="Helvetica,sans-Serif" font-size="14.00">Enseignant</text>
</g>
<!-- enseignant&#45;&gt;notes -->
<g id="edge8" class="edge">
<title>enseignant&#45;&gt;notes</title>
<path fill="none" stroke="black" d="M105.7,-101.31C121.07,-106 138.74,-111.08 155,-115 172.44,-119.2 191.19,-123.11 209.25,-126.58"/>
<polygon fill="black" stroke="black" points="208.43,-129.99 218.9,-128.4 209.72,-123.11 208.43,-129.99"/>
</g>
<!-- enseignant&#45;&gt;bulletins -->
<g id="edge9" class="edge">
<title>enseignant&#45;&gt;bulletins</title>
<path fill="none" stroke="black" d="M105.7,-74.69C121.07,-70 138.74,-64.92 155,-61 170.59,-57.25 187.21,-53.72 203.46,-50.54"/>
<polygon fill="black" stroke="black" points="203.99,-54 213.15,-48.68 202.66,-47.13 203.99,-54"/>
</g>
<!-- enseignant&#45;&gt;pdf -->
<g id="edge10" class="edge">
<title>enseignant&#45;&gt;pdf</title>
<path fill="none" stroke="black" d="M105.71,-88C124.23,-88 147.2,-88 170.82,-88"/>
<polygon fill="black" stroke="black" points="170.57,-91.5 180.57,-88 170.57,-84.5 170.57,-91.5"/>
</g>
<!-- responsable -->
<g id="node3" class="node">
<title>responsable</title>
<polygon fill="none" stroke="black" points="127,-52 0,-52 0,-16 127,-16 127,-52"/>
<text xml:space="preserve" text-anchor="middle" x="63.5" y="-28.2" font-family="Helvetica,sans-Serif" font-size="14.00">Responsable légal</text>
</g>
<!-- responsable&#45;&gt;bulletins -->
<g id="edge11" class="edge">
<title>responsable&#45;&gt;bulletins</title>
<path fill="none" stroke="black" d="M127.28,-34C134.9,-34 142.92,-34 151.17,-34"/>
<polygon fill="black" stroke="black" points="151.01,-37.5 161.01,-34 151.01,-30.5 151.01,-37.5"/>
</g>
<!-- responsable&#45;&gt;pdf -->
<g id="edge12" class="edge">
<title>responsable&#45;&gt;pdf</title>
<path fill="none" stroke="black" d="M123.16,-52.49C133.7,-55.54 144.64,-58.5 155,-61 172.34,-65.18 190.97,-69.07 208.93,-72.52"/>
<polygon fill="black" stroke="black" points="208.04,-75.91 218.52,-74.33 209.34,-69.04 208.04,-75.91"/>
</g>
</g>
</svg>
